PathFileType	4	(X/Y/Z)	SUBJ36_1_walk_RCNL2025.trc
DataRate	CameraRate	NumFrames	NumMarkers	Units	OrigDataRate	OrigDataStartFrame	OrigNumFrames
100	100	12	25	mm	100	48	378
Frame#	Time	R_Shoulder			L_Shoulder			C7			J_Notch			R_Elbow			L_Elbow			R_Wrist			L_Wrist			R_Asis			L_Asis			Sacral			Thoracic			Sternum			R_Thigh_Lateral			R_Knee_Lateral			R_Shank_Lateral			R_Ankle_Lateral			R_Heel			R_Toe			L_Thigh_Lateral			L_Knee_Lateral			L_Shank_Lateral			L_Ankle_Lateral			L_Heel			L_Toe		
		X1	Y1	Z1	X2	Y2	Z2	X3	Y3	Z3	X4	Y4	Z4	X5	Y5	Z5	X6	Y6	Z6	X7	Y7	Z7	X8	Y8	Z8	X9	Y9	Z9	X10	Y10	Z10	X11	Y11	Z11	X12	Y12	Z12	X13	Y13	Z13	X14	Y14	Z14	X15	Y15	Z15	X16	Y16	Z16	X17	Y17	Z17	X18	Y18	Z18	X19	Y19	Z19	X20	Y20	Z20	X21	Y21	Z21	X22	Y22	Z22	X23	Y23	Z23	X24	Y24	Z24	X25	Y25	Z25
48	0.47000000	-615.436401	1349.197144	-164.655823	-592.268433	1318.159790	-507.489044	-668.977661	1403.538086	-330.602570	-534.781921	1297.020508	-322.932648	-691.399536	1033.849609	-92.441788	-623.998291	1001.640747	-554.170044	-620.381805	807.181305	-53.225121	-504.966583	799.696014	-537.827576	-547.207031	912.840515	-200.889450	-542.993530	889.355042	-427.752808	-765.672607	895.204956	-311.024139	-743.795837	1143.205078	-326.929626	-502.240906	1117.153442	-303.180115	-541.661011	505.192078	-161.206314	-530.948059	446.981964	-210.998337	-546.106445	236.197388	-181.221405	-555.508301	71.920143	-256.821564	-606.158875	47.435898	-299.525574	-437.807220	49.231384	-287.492035	-650.859497	500.235901	-515.345459	-650.441711	425.442566	-451.953735	-817.594421	315.409576	-482.175201	-950.566772	222.208115	-404.364166	-984.252808	234.808090	-343.519287	-924.570251	90.731224	-400.845917
49	0.48000000	-603.067322	1350.537720	-164.385727	-581.660889	1319.229248	-507.336975	-657.207214	1405.051514	-330.105774	-523.380981	1298.045410	-322.903809	-678.316284	1035.301147	-90.982811	-615.413086	1002.738708	-553.413086	-603.259460	809.569092	-52.818922	-497.882004	799.833405	-537.715485	-536.546448	913.743103	-199.900314	-532.532349	891.070129	-426.998657	-755.325012	897.088196	-309.552795	-732.835632	1144.988037	-325.536957	-491.302399	1118.063843	-303.373077	-537.318420	505.129669	-160.766327	-527.484802	446.772003	-210.645340	-544.596008	236.008942	-181.151932	-555.279541	71.977242	-256.888184	-606.056091	47.623375	-299.536407	-437.725433	49.208031	-287.518677	-629.956970	500.849182	-514.696533	-626.340393	426.274200	-451.841644	-793.243530	317.559509	-482.070526	-927.432251	226.343002	-404.322021	-961.491943	237.964157	-343.251831	-901.231750	95.250145	-403.346130
50	0.49000000	-590.732666	1351.806885	-164.131973	-571.279907	1320.231079	-507.228790	-645.543091	1406.524048	-329.606628	-512.107117	1298.997925	-322.937256	-665.319763	1036.734741	-89.504890	-606.961487	1003.789551	-552.675659	-586.140656	812.033356	-52.503145	-490.932007	799.976440	-537.622772	-526.046204	914.636658	-198.819946	-522.149292	893.109741	-426.231110	-745.060059	898.943604	-308.162323	-722.029053	1146.742065	-324.029846	-480.471222	1118.882812	-303.806702	-532.892334	505.119934	-160.440598	-524.013672	446.623016	-210.409500	-542.927429	235.853790	-181.157425	-555.045593	72.022842	-256.978485	-605.957153	47.839600	-299.567596	-437.634888	49.186787	-287.567413	-609.395813	502.010376	-513.991821	-602.469910	427.769623	-451.619476	-768.802979	319.945740	-481.842163	-903.504211	229.307617	-404.510986	-938.285889	239.831848	-343.397095	-875.844360	98.915253	-405.254211
51	0.50000000	-578.441101	1353.024658	-163.887421	-561.115662	1321.184937	-507.142242	-633.995056	1407.948486	-329.091400	-500.958740	1299.889160	-323.017181	-652.427307	1038.159912	-88.031616	-598.640320	1004.810974	-551.947205	-569.071686	814.594147	-52.282558	-484.098129	800.140991	-537.554626	-515.684326	915.513733	-197.673203	-511.837952	895.402527	-425.436310	-734.851318	900.715515	-306.920990	-711.356506	1148.444458	-322.421417	-469.746552	1119.625610	-304.424652	-528.362488	505.133148	-160.195724	-520.565430	446.506531	-210.252716	-541.181458	235.712799	-181.209000	-554.808655	72.035805	-257.091736	-605.884277	48.077183	-299.595459	-437.539734	49.169922	-287.630493	-589.064758	503.619720	-513.297424	-578.898499	429.819183	-451.300812	-744.327026	322.477753	-481.543213	-878.890930	231.032715	-404.930725	-914.705139	240.401276	-343.966309	-848.606934	101.661407	-406.493774
52	0.51000000	-566.200928	1354.202881	-163.648590	-551.155518	1322.106201	-507.058197	-622.569885	1409.314819	-328.549011	-489.932373	1300.728027	-323.129944	-639.659119	1039.576294	-86.581116	-590.450439	1005.813599	-551.218872	-552.086670	817.260345	-52.161629	-477.363831	800.332550	-537.516785	-505.431274	916.353516	-196.498734	-501.592316	897.845337	-424.606506	-724.678589	902.356567	-305.882172	-700.795044	1150.069946	-320.723236	-459.125946	1120.305664	-305.166565	-523.753540	505.141876	-159.998810	-517.181519	446.397583	-210.142853	-539.442505	235.577698	-181.277679	-554.577576	72.018456	-257.212494	-605.862732	48.326096	-299.589691	-437.442963	49.157494	-287.700867	-568.852478	505.578857	-512.669861	-555.680176	432.305817	-450.899872	-719.874817	325.041382	-481.208923	-853.680542	231.491165	-405.539459	-890.764648	239.654221	-344.899963	-819.728333	103.490616	-407.086395
53	0.52000000	-554.022522	1355.344116	-163.412125	-541.385620	1323.004028	-506.961853	-611.271484	1410.611084	-327.971313	-479.022278	1301.519409	-323.265106	-627.028625	1040.969849	-85.165924	-582.391663	1006.800842	-550.484741	-535.206711	820.024811	-52.145275	-470.716492	800.549072	-537.516510	-495.252319	917.126587	-195.339279	-491.405701	900.314026	-423.738342	-714.527649	903.831970	-305.077789	-690.320984	1151.594116	-318.947510	-448.603638	1120.932983	-305.978760	-519.123596	505.129547	-159.822769	-513.899658	446.280457	-210.059982	-537.776611	235.449631	-181.341339	-554.367676	71.989838	-257.316437	-605.912598	48.577969	-299.523254	-437.346710	49.148842	-287.772522	-548.669250	507.796417	-512.147522	-532.853394	435.115448	-450.431519	-695.505493	327.507141	-480.853027	-827.937317	230.690186	-406.265259	-866.427124	237.571884	-346.082733	-789.428711	104.451767	-407.144318
54	0.53000000	-541.918457	1356.442139	-163.173996	-531.790833	1323.880005	-506.843597	-600.100769	1411.823853	-327.353516	-468.221954	1302.264404	-323.414917	-614.539307	1042.316895	-83.792458	-574.460083	1007.769226	-549.741028	-518.446182	822.864258	-52.236774	-464.146698	800.783539	-537.564911	-485.111450	917.800903	-194.234177	-481.268951	902.681274	-422.834167	-704.387756	905.121216	-304.516937	-679.911499	1152.996460	-317.110107	-438.170502	1121.513550	-306.817322	-514.550049	505.090271	-159.650146	-510.750000	446.150482	-209.995728	-536.222595	235.334732	-181.387909	-554.191650	71.968964	-257.384705	-606.039307	48.829735	-299.384186	-437.252991	49.144279	-287.841095	-528.461304	510.195984	-511.746307	-510.441071	438.147125	-449.911682	-671.270142	329.733643	-480.473358	-801.701538	228.664658	-407.021057	-841.615479	234.147156	-347.366028	-757.936890	104.614700	-406.844238
55	0.54000000	-529.901794	1357.482910	-162.929703	-522.354675	1324.728394	-506.699097	-589.055786	1412.939209	-326.694702	-457.523529	1302.959473	-323.573334	-602.186523	1043.588989	-82.461075	-566.648865	1008.708374	-548.983948	-501.816940	825.742493	-52.434801	-457.646484	801.022858	-537.673248	-474.975037	918.347961	-193.217758	-471.169342	904.836609	-421.904388	-694.248962	906.217834	-304.186951	-669.546143	1154.260986	-315.230133	-427.814148	1122.048584	-307.646332	-510.118561	505.024902	-159.473938	-507.755829	446.012207	-209.948227	-534.791687	235.239639	-181.414780	-554.054932	71.967834	-257.409149	-606.226379	49.083458	-299.183105	-437.164246	49.145519	-287.903076	-508.216370	512.721985	-511.460083	-488.454468	441.318787	-449.355530	-647.202515	331.568329	-480.060699	-774.992065	225.470932	-407.718964	-816.230896	229.395508	-348.593445	-725.476624	104.047272	-406.392487
56	0.55000000	-517.984314	1358.447021	-162.674011	-513.059753	1325.537720	-506.528107	-578.131958	1413.942261	-325.997864	-446.916077	1303.597046	-323.734039	-589.958130	1044.755981	-81.167847	-558.948486	1009.601746	-548.210327	-485.328918	828.615784	-52.733370	-451.208069	801.246948	-537.849091	-464.813995	918.746948	-192.319427	-461.091156	906.702515	-420.968414	-684.102417	907.127075	-304.056335	-659.209290	1155.374512	-313.326813	-417.518921	1122.534546	-308.436829	-505.913177	504.938293	-159.294250	-504.935760	445.876221	-209.917648	-533.476379	235.169403	-181.425156	-553.956116	71.992348	-257.390198	-606.430725	49.341831	-298.954010	-437.083618	49.154686	-287.954803	-487.961487	515.341187	-511.265198	-466.898926	444.566254	-448.772461	-623.309143	332.847687	-479.606537	-747.810303	221.180756	-408.282623	-790.172058	223.359299	-349.626068	-692.246887	102.800346	-405.992065
57	0.56000000	-506.174805	1359.312866	-162.401443	-503.887512	1326.291748	-506.331757	-567.322021	1414.818237	-325.269318	-436.386169	1304.164307	-323.888855	-577.834656	1045.787598	-79.907310	-551.344421	1010.429443	-547.419189	-468.990250	831.437317	-53.123442	-444.822235	801.433105	-538.099060	-454.605255	918.987244	-191.559525	-451.018036	908.242920	-420.052795	-673.940308	907.862305	-304.080078	-648.890869	1156.325439	-311.417419	-407.265930	1122.964722	-309.168427	-502.005341	504.840210	-159.113953	-502.306366	445.756714	-209.901520	-532.264038	235.128052	-181.422272	-553.887573	72.045036	-257.335815	-606.585571	49.603294	-298.746826	-437.015259	49.173569	-287.992615	-467.757782	518.037964	-511.128723	-445.780090	447.837219	-448.164612	-599.561340	333.399902	-479.109711	-720.144714	215.876022	-408.656433	-763.349365	216.106857	-350.362762	-658.406067	100.909073	-405.805237
58	0.57000000	-494.477570	1360.059326	-162.107590	-494.817444	1326.971313	-506.111694	-556.616089	1415.553345	-324.517700	-425.921082	1304.644653	-324.028473	-565.790588	1046.656982	-78.675606	-543.816345	1011.172424	-546.613464	-452.808289	834.159882	-53.592505	-438.478516	801.561920	-538.430328	-444.333862	919.069214	-190.945084	-440.936707	909.461487	-419.185760	-663.755310	908.440491	-304.207886	-638.585754	1157.106934	-309.519226	-397.034607	1123.330322	-309.829895	-498.445160	504.746155	-158.935944	-499.882385	445.668976	-209.891632	-531.146973	235.119873	-181.404999	-553.834900	72.128136	-257.260864	-606.621948	49.863728	-298.610565	-436.965088	49.203007	-288.013153	-447.695343	520.804016	-511.016479	-425.107880	451.083740	-447.531219	-575.894348	333.056580	-478.579834	-691.973267	209.643875	-408.810455	-735.692871	207.729126	-350.749756	-624.071167	98.417908	-405.908722
59	0.58000000	-482.891449	1360.666138	-161.791260	-485.825378	1327.556641	-505.870636	-546.001526	1416.136353	-323.751984	-415.510284	1305.019165	-324.144104	-553.797607	1047.342041	-77.473633	-536.339783	1011.815430	-545.800964	-436.791718	836.736786	-54.123034	-432.167892	801.618958	-538.842682	-433.994843	919.003357	-190.471268	-430.841003	910.392090	-418.391357	-653.541504	908.877136	-304.390930	-628.291260	1157.716919	-307.652649	-386.806458	1123.621460	-310.416046	-495.254730	504.674744	-158.761398	-497.671967	445.627350	-209.873962	-530.124023	235.149429	-181.367538	-553.778809	72.245750	-257.183655	-606.505432	50.126205	-298.570648	-436.940186	49.241604	-288.013214	-427.887238	523.624695	-510.898956	-404.899414	454.256104	-446.873505	-552.217285	331.677673	-478.034943	-663.266235	202.572998	-408.741058	-707.153137	198.335297	-350.779297	-589.322815	95.401985	-406.272766
